<svg width="199" height="43" viewBox="0 0 199 43" fill="none" xmlns="http://www.w3.org/2000/svg">
<g id="logo">
<path id="path14" fill-rule="evenodd" clip-rule="evenodd" d="M56.2436 14.007C49.5942 14.007 47.963 20.0413 47.963 23.2202C47.963 26.4194 49.7577 28.9927 53.9595 28.9927C58.712 28.9927 60.6493 25.7513 61.2206 23.5863H57.8762C56.8963 26.1376 55.1418 26.2382 54.306 26.2382C53.6941 26.2382 51.5936 26.0773 51.5936 22.7153C51.5936 20.5264 52.7355 16.7616 56.1004 16.7616C57.6512 16.7616 58.6915 17.3876 58.6915 18.8061C58.6915 18.9487 58.6915 19.0897 58.6701 19.2305H61.996C62.0567 18.8884 62.0567 18.5425 62.0567 18.1982C62.0567 14.5326 58.5283 14.007 56.2436 14.007Z" fill="#EE2523"/>
<path id="path16" fill-rule="evenodd" clip-rule="evenodd" d="M74.2337 25.8336H66.1368L66.7887 22.7334H73.8054L74.3556 19.9809H67.3793L67.9722 17.1659H75.9261L76.4977 14.4116H65.1976L62.1788 28.5861H73.6625L74.2337 25.8336Z" fill="#EE2523"/>
<path id="path18" fill-rule="evenodd" clip-rule="evenodd" d="M80.1686 22.673H83.2499C84.4115 22.673 85.1863 22.9366 85.1863 24.1518C85.1863 25.4695 83.8405 25.8336 82.9634 25.8336H79.4957L80.1686 22.673ZM81.3322 17.1659H84.3502C85.2675 17.1659 85.859 17.6309 85.859 18.3611C85.859 19.6369 84.5134 19.9206 83.8405 19.9206L80.7402 19.9205L81.3322 17.1659ZM82.3511 28.5861C86.7155 28.5861 88.7562 26.683 88.7562 24.0712C88.7562 22.1879 87.5724 21.4195 86.3898 21.1358L86.4091 21.0935C88.838 20.5685 89.5311 18.6632 89.5311 17.4094C89.5311 15.9711 88.8573 14.4116 85.7368 14.4116H78.5574L75.5388 28.5861H82.3511Z" fill="#EE2523"/>
<path id="path20" fill-rule="evenodd" clip-rule="evenodd" d="M102.442 25.8336H94.3443L94.9988 22.7334H102.014L102.564 19.9809H95.5885L96.1803 17.1659H104.134L104.706 14.4116H93.4078L90.3886 28.5861H101.87L102.442 25.8336Z" fill="#EE2523"/>
<path id="path22" fill-rule="evenodd" clip-rule="evenodd" d="M109.539 17.1659H112.192C113.497 17.1659 114.291 17.5706 114.291 18.8884C114.291 19.8802 113.701 20.9729 111.375 20.9729L108.723 20.9728L109.539 17.1659ZM107.113 28.5861L108.153 23.7272H111.355C117.25 23.7272 117.862 19.7375 117.862 18.2807C117.862 14.8162 115.067 14.4116 113.436 14.4116H106.767L103.747 28.5861H107.113Z" fill="#EE2523"/>
<path id="path24" fill-rule="evenodd" clip-rule="evenodd" d="M125.123 21.9045H119.248L118.719 24.4357H124.592L125.123 21.9045Z" fill="#EE2523"/>
<path id="path26" fill-rule="evenodd" clip-rule="evenodd" d="M141.583 19.2305C141.643 18.8884 141.643 18.5425 141.643 18.1982C141.643 14.5326 138.116 14.007 135.832 14.007C129.182 14.007 127.551 20.0413 127.551 23.2202C127.551 26.4194 129.344 28.9927 133.548 28.9927C138.298 28.9927 140.237 25.7513 140.808 23.5863H137.463C136.484 26.1376 134.731 26.2382 133.894 26.2382C133.28 26.2382 131.18 26.0773 131.18 22.7153C131.181 20.5264 132.323 16.7616 135.688 16.7616C137.238 16.7616 138.279 17.3876 138.279 18.8061C138.279 18.9487 138.279 19.0897 138.259 19.2305H141.583Z" fill="#EE2523"/>
<path id="path28" fill-rule="evenodd" clip-rule="evenodd" d="M150.068 19.9205H146.967L147.558 17.1659H150.578C151.496 17.1659 152.086 17.6309 152.086 18.3611C152.086 19.6369 150.74 19.9206 150.068 19.9205ZM149.191 25.8336H145.723L146.396 22.673H149.476C150.639 22.673 151.413 22.9366 151.413 24.1518C151.413 25.4695 150.068 25.8336 149.191 25.8336ZM151.964 14.4116H144.785L141.767 28.5861H148.578C152.944 28.5861 154.984 26.683 154.984 24.0712C154.984 22.1879 153.801 21.4195 152.619 21.1358L152.637 21.0935C155.065 20.5685 155.759 18.6632 155.759 17.4094C155.759 15.9711 155.085 14.4116 151.964 14.4116Z" fill="#EE2523"/>
<path id="path30" fill-rule="evenodd" clip-rule="evenodd" d="M164.203 17.1659H167.18L166.385 20.9326H163.51C162.918 20.9326 161.429 20.7916 161.429 19.3732C161.429 17.4699 163.407 17.1659 164.203 17.1659ZM160.042 28.5861L163.795 23.6868H165.794L164.754 28.5861H168.118L171.137 14.4116H163.938C160.675 14.4116 157.799 16.0917 157.799 19.4135C157.799 22.0654 159.185 23.1196 160.632 23.3631L156.125 28.5861H160.042Z" fill="#EE2523"/>
<path id="path32" fill-rule="evenodd" clip-rule="evenodd" d="M177.276 28.9927C183.621 28.9927 184.395 25.508 184.395 24.1519C184.395 22.1076 182.804 21.4798 181.886 21.2967V21.2565C183.743 20.8721 185.047 19.5161 185.047 17.5706C185.048 15.7277 183.783 14.007 179.766 14.007C174.952 14.007 173.075 16.3168 172.483 19.009H175.89C176.074 18.1377 176.704 16.7616 179.01 16.7616C180.093 16.7616 181.416 17.0234 181.416 18.2204C181.416 19.009 180.988 20.0413 178.849 20.0413H177.177L176.625 22.653H178.644C179.46 22.653 180.766 22.7334 180.766 24.0712C180.766 25.1641 179.868 26.2382 177.543 26.2382C176.237 26.2382 174.544 25.9949 174.544 24.1114C174.544 23.9689 174.564 23.8481 174.605 23.7071H171.32C171.279 23.9305 171.259 24.1738 171.241 24.3953C171.199 24.8014 171.178 25.2264 171.241 25.6306C171.586 28.3447 174.258 28.9927 177.276 28.9927Z" fill="#EE2523"/>
<path id="path34" fill-rule="evenodd" clip-rule="evenodd" d="M193.042 25.8336H189.84L190.596 22.3088H193.33C194.696 22.3088 195.43 22.7956 195.43 24.0108C195.43 25.5703 193.573 25.8336 193.042 25.8336ZM194.125 19.5545H191.167L192.268 14.4116H188.902L185.885 28.5861H192.657C197.061 28.5861 199 26.176 199 23.6468C199 19.6369 195.43 19.5545 194.125 19.5545Z" fill="#EE2523"/>
<path id="path36" fill-rule="evenodd" clip-rule="evenodd" d="M1.45102 26.66C1.37414 26.8245 1.45295 26.7184 1.6212 26.4553C1.54353 26.5172 1.4834 26.5868 1.45102 26.66Z" fill="#EE2523"/>
<path id="path38" fill-rule="evenodd" clip-rule="evenodd" d="M18.4257 28.7721C18.3151 28.7354 16.9371 27.407 16.5943 27.0775C16.2488 26.7445 15.7742 26.7222 15.7742 26.7222C15.7742 26.7222 15.88 26.4186 16.1509 26.3196C16.421 26.221 16.3482 25.7927 16.3482 25.7927C16.8911 24.2187 18.3704 23.684 18.0653 23.5816C17.799 23.4902 16.6761 22.3794 16.5058 22.2144C16.7031 22.4012 17.0635 22.1634 17.0635 22.1634C16.6349 21.7973 15.9168 19.7367 16.1906 19.9488C16.4625 20.1612 16.7325 20.0659 16.643 19.8462C16.5538 19.6266 16.5693 19.1033 16.5693 19.1033C16.5693 19.1033 17.4719 20.2527 17.5732 20.2342C17.4938 20.249 16.9122 20.348 16.9122 20.348C16.9122 20.348 17.6938 21.4095 18.2883 21.5192C18.2883 21.5192 17.5308 21.5157 17.3557 21.413C17.2358 21.3471 17.3925 21.6912 17.4073 21.7242C17.7436 22.5294 18.3298 23.1352 19.1464 23.4756C18.6541 23.5086 17.245 26.1365 17.245 26.1365C16.9989 26.576 19.494 28.5891 19.494 28.5891C19.494 28.5891 18.5364 28.8015 18.4257 28.7721ZM14.6671 27.1396C14.1001 27.1835 11.3812 29.0428 11.3812 29.0428C11.3812 29.0428 10.8788 28.2415 10.6844 28.3294C10.489 28.4133 8.83722 29.4715 8.83722 29.4715L8.60505 28.1058C8.38946 26.5322 9.40975 23.9184 9.40975 23.9184C9.21616 24.6285 10.3233 26.2064 10.3233 26.2064C10.2079 24.3027 13.713 18.4664 13.713 18.4664C13.713 18.4664 12.4468 21.1751 13.0302 23.362L14.9389 21.8192C14.2422 22.4855 15.6486 25.9865 15.6486 25.9865C15.6486 25.9865 15.2358 27.0957 14.6671 27.1396ZM14.2643 9.93394C14.6642 9.68161 15.1398 9.51674 15.5954 9.39602C15.5954 9.39602 13.5821 10.1757 13.7087 11.6873C13.8365 13.1993 14.2605 14.6084 14.2605 14.6084C15.2469 14.2608 16.1852 14.6999 16.1852 14.6999C16.1852 14.6999 14.7094 14.6377 14.0587 15.5785C13.8339 14.9451 13.6236 14.3081 13.4402 13.6641C13.0495 12.2912 12.8891 10.7907 14.2643 9.93394ZM17.6919 11.4095C17.3187 11.3653 17.1196 11.7389 17.1196 11.7389C17.1196 11.7389 17.3732 11.5411 17.9933 12.112C18.6147 12.6829 17.456 13.7079 17.456 13.7079C17.456 13.7079 17.2551 11.9216 15.8321 12.6318C15.8321 12.6318 16.6302 12.0753 16.493 11.7937C16.104 10.9883 14.9868 12.1484 14.9868 12.1484C15.9003 10.022 18.0642 11.4496 17.6919 11.4095ZM20.033 11.4823C19.3814 11.047 19.0617 12.0865 19.0617 12.0865C19.0617 12.0865 18.9761 10.6992 18.2135 10.022C18.0534 9.87946 20.033 11.4823 20.033 11.4823ZM26.1143 17.4965C23.1381 14.4621 18.9639 14.5388 18.9639 14.5388C20.0653 13.9385 20.1095 12.6573 20.1095 12.6573C23.4203 13.6457 26.1143 17.4966 26.1143 17.4965ZM27.3881 20.4065L29.2049 21.2448L26.5079 21.6947C26.5079 21.6947 26.6702 21.4095 26.3273 21.3873C25.9826 21.3691 25.3071 20.9372 25.2721 20.7358C25.238 20.5308 25.649 18.9568 26.4131 18.829C26.4131 18.8288 26.2452 19.8428 27.3881 20.4065ZM31.8674 20.9699C32.434 21.3905 32.5871 21.7369 32.5417 22.0608C32.4949 22.3942 32.2555 22.8599 31.9774 23.2487L30.8031 23.3298C30.8482 23.1594 30.9403 22.9668 31.1055 22.7567C31.8775 21.7761 31.6851 21.2961 31.3492 21.0066C31.115 20.8051 30.2356 20.465 30.2356 20.465C30.2356 20.465 31.5245 20.716 31.8674 20.9699ZM25.5226 18.8215L24.9465 19.2826L24.7329 20.1759C24.7329 20.1759 23.4809 20.0476 23.2626 19.9965C23.0432 19.9416 23.8379 18.6128 25.5226 18.8215ZM29.604 26.3455C28.871 26.8066 26.415 26.5172 25.7143 26.2464C25.0148 25.9721 23.1907 26.4808 23.1907 26.4808C23.1907 26.4808 24.3014 25.7815 24.8102 25.6974C25.3189 25.6098 26.544 25.7451 27.8905 25.9575C29.2355 26.1733 30.2824 25.7122 30.2824 25.7122C30.2824 25.7122 30.3358 25.8876 29.604 26.3455ZM19.7474 29.6177C18.8155 29.6727 19.5079 28.8234 19.5079 28.8234C20.6809 29.563 22.0866 29.2187 22.0866 29.2187C21.8296 28.3294 22.5087 28.0072 22.5087 28.0072C24.4564 27.1579 25.7222 27.4734 25.7222 27.4734C28.2854 27.7663 30.1726 26.3016 30.1726 26.3016C31.1387 25.8293 31.9009 24.2571 32.4224 23.534C32.6904 23.1626 34.0137 21.3905 32.1287 20.6354C31.2456 20.2816 27.745 18.8105 27.745 18.8105L27.3835 16.691L24.1522 13.7005L21.2653 12.1085C21.2653 12.1085 22.4977 10.1315 21.716 9.84992C20.9355 9.56433 19.8993 9.0118 18.8994 9.28276C17.8976 9.55717 17.3195 8.61295 16.3858 8.66771C15.4522 8.71875 14.8606 8.92406 14.8606 8.92406L9.13868 7.28766L6.40517 6.60322C6.40517 6.60322 6.25468 7.56207 6.81718 8.40421C6.81718 8.40421 3.58099 9.67444 2.95521 10.9226C2.33124 12.1708 3.14126 10.7873 4.346 11.1055C4.346 11.1055 1.08126 14.6671 1.37255 15.7614L1.70332 18.9277C1.70332 18.9277 -1.04675 24.8959 0.44183 23.8124C1.93301 22.7324 4.13853 23.3987 3.73218 23.4684C3.427 23.5195 2.12366 25.6717 1.62051 26.4554C2.26118 25.9427 4.2299 25.7744 4.2299 25.7744C3.28317 26.9751 3.12364 30.9502 3.54512 29.7384C3.96703 28.5231 4.83064 28.6878 4.83064 28.6878C4.32388 29.3979 5.3701 33.6914 5.3701 33.6914C5.3701 33.6914 7.36455 30.6536 6.97533 31.444C6.58839 32.2386 7.30454 33.988 7.37099 33.1463C7.43733 32.3044 9.41258 30.3862 9.41258 30.3862C9.41258 30.3862 9.38843 31.0158 9.37275 31.3931C9.41258 30.3862 11.0088 29.314 11.0088 29.314C11.0099 29.9397 11.3672 30.1888 11.3672 30.1888C11.5674 28.9074 14.6358 27.8753 14.6358 27.8753C14.6734 27.9998 14.7565 28.1316 14.8541 28.2633L14.844 28.2557C13.6116 29.9397 13.0809 31.0526 13.0809 31.0526C13.0809 31.0526 14.1425 30.291 14.4964 30.1741C14.8506 30.057 15.2632 29.9982 15.2632 29.9982C15.2632 29.9982 13.2577 31.8141 12.5498 34.0395C11.842 36.2648 11.4881 37.7289 11.4881 37.7289C11.4881 37.7289 13.8477 34.9763 14.3784 34.5666C14.9094 34.1564 15.2632 33.9222 15.2632 33.9222C15.2632 33.9222 14.2016 35.5037 14.0246 36.3821C13.8477 37.2607 13.7296 38.8419 13.7296 38.8419L14.4375 38.1975C14.4375 38.1975 14.6144 40.3645 15.2632 41.1844C15.9123 42.0045 17.2099 43 17.2099 43C17.2099 43 16.1482 41.4187 16.3253 39.9545C16.5021 38.4904 17.2099 37.4946 17.2099 37.4946L15.8531 38.4904C15.8531 38.4904 15.6856 36.0308 16.7427 34.6835C17.7997 33.3365 17.7997 33.3365 17.7997 33.3365L16.207 33.6914C16.207 33.6914 16.5021 32.1065 17.4461 31.3454C18.3896 30.5839 18.8027 30.5255 18.8027 30.5255C18.8027 30.5255 17.7997 30.2326 17.2099 30.4084C16.6201 30.5839 15.8531 30.9941 15.8531 30.9941L16.2321 29.4493C16.3056 29.4747 16.3335 29.4638 16.2515 29.3687C15.8597 28.915 16.4191 28.5084 16.4191 28.5084C17.5253 30.0896 20.6809 29.563 19.7474 29.6177Z" fill="#EE2523"/>
<path id="path40" fill-rule="evenodd" clip-rule="evenodd" d="M18.5511 0C11.8844 0 5.94047 3.04914 2.03982 7.81497C5.74599 4.14332 10.8586 1.8741 16.5058 1.8741C27.8185 1.8741 36.9901 10.9811 36.9901 22.2144C36.9901 32.0372 29.9734 40.2361 20.6451 42.136C31.4096 41.093 39.8227 32.0848 39.8227 21.1202C39.8227 9.45825 30.2988 0 18.5511 0Z" fill="#EE2523"/>
</g>
</svg>
