<svg width="23" height="22" viewBox="0 0 23 22" fill="none" xmlns="http://www.w3.org/2000/svg">
<g id="user">
<path id="Vector" d="M5.4895 5.86761C5.4895 8.79838 8.2653 11.0499 11.4999 11.0499C14.7345 11.0499 17.5103 8.79838 17.5103 5.86761C17.5103 2.93684 14.7345 0.685303 11.4999 0.685303C8.2653 0.685303 5.4895 2.93684 5.4895 5.86761ZM7.927 5.86761C7.927 4.31151 9.45412 2.90677 11.4999 2.90677C13.5457 2.90677 15.0728 4.31151 15.0728 5.86761C15.0728 7.42372 13.5457 8.82845 11.4999 8.82845C9.45412 8.82845 7.927 7.42372 7.927 5.86761Z" fill="#EE2523" stroke="#EE2523"/>
<path id="Vector_2" d="M18.5135 20.1862C18.5135 20.8694 19.1426 21.2969 19.7322 21.2969C20.3218 21.2969 20.951 20.8694 20.951 20.1862C20.951 18.2407 19.8272 16.5261 18.1145 15.3182C16.4001 14.1091 14.0591 13.3752 11.5001 13.3752C8.9412 13.3752 6.60015 14.1091 4.88577 15.3182C3.17309 16.5261 2.04932 18.2407 2.04932 20.1862C2.04932 20.8694 2.67845 21.2969 3.26807 21.2969C3.85768 21.2969 4.48682 20.8694 4.48682 20.1862C4.48682 18.9975 5.20037 17.8623 6.47127 17.002C7.73913 16.1437 9.51696 15.5967 11.5001 15.5967C13.4833 15.5967 15.2612 16.1437 16.529 17.002C17.7999 17.8623 18.5135 18.9975 18.5135 20.1862Z" fill="#EE2523" stroke="#EE2523"/>
</g>
</svg>
